# xmcd
#
# Track frame offsets:
#	187
#	17605
#	39722
#	56192
#	73432
#	87117
#	102795
#	118317
#	136915
#	152697
#
# Disc length: 2328 seconds
#
# Revision: 4
# Processed by: cddbd v1.5.1PL2 Copyright (c) Steve Scherf et al.
# Submitted via: dBpowerAMP V4.0
#
DISCID=8a09160a
DTITLE=Lorrie Morgan - War Paint
DYEAR=1994
DGENRE=Country
TTITLE0=My Night To Howl
TTITLE1=War Paint
TTITLE2=If You Came Back From Heaven
TTITLE3=Heart Over Mind
TTITLE4=1-800 Use To Be
TTITLE5=A Good Year For The Roses (Duet with Sammy Kershaw)
TTITLE6=The Hard Part Was Easy
TTITLE7=Don't Touch Me
TTITLE8=Exit 99
TTITLE9=Evening Up The Odds
EXTD=Copyright 1994 BMG Music\nBMG Music, Inc
EXTT0=
EXTT1=
EXTT2=
EXTT3=
EXTT4=
EXTT5=
EXTT6=
EXTT7=
EXTT8=
EXTT9=
PLAYORDER=
